<svg xmlns="http://www.w3.org/2000/svg"  viewBox="0 0 64 64" width="64px" height="64px"><linearGradient id="kgRuRVfhYbsg7F4Xxd2wXa" x1="32" x2="32" y1="-1703.5" y2="-1757.251" gradientTransform="matrix(1 0 0 -1 0 -1698)" gradientUnits="userSpaceOnUse"><stop offset="0" stop-color="#1a6dff"/><stop offset="1" stop-color="#c822ff"/></linearGradient><path fill="url(#kgRuRVfhYbsg7F4Xxd2wXa)" d="M32,58C17.664,58,6,46.337,6,32S17.664,6,32,6s26,11.663,26,26S46.336,58,32,58z M32,8	C18.767,8,8,18.767,8,32s10.767,24,24,24s24-10.767,24-24S45.233,8,32,8z"/><linearGradient id="kgRuRVfhYbsg7F4Xxd2wXb" x1="31" x2="31" y1="-1721.333" y2="-1741.616" gradientTransform="matrix(1 0 0 -1 0 -1698)" gradientUnits="userSpaceOnUse"><stop offset="0" stop-color="#6dc7ff"/><stop offset="1" stop-color="#e6abff"/></linearGradient><path fill="url(#kgRuRVfhYbsg7F4Xxd2wXb)" d="M40.975,32.906c0,0,3.974-5.822,4.369-7.664C45.477,24.584,45.188,24,44.502,24	c0,0-2.29,0-3.448,0c-0.79,0-1.079,0.558-1.316,1.058c0,0-1.864,4.08-4.132,6.583c-0.728,0.809-0.914,1.107-1.316,1.107	c-0.324,0-0.29-0.216-0.29-0.946v-6.396C34,24.51,33.528,24,32.791,24h-5.527c-0.421,0-0.618,0.368-0.618,0.702	c0,0.843,1.356,1.156,1.356,3.44v4.711c0,0.948-0.119,1.316-0.566,1.316c-1.184,0-4.034-4.203-5.613-8.836	C21.505,24.387,21.13,24,20.236,24h-3.448c-0.5,0-0.869,0.466-0.869,0.966c0,0.921,1.079,5.247,5.317,10.959	c2.843,3.843,6.711,5.953,10.08,5.953c2.053,0,2.684-0.311,2.684-1.18V37.75c0-0.737,0.158-1.053,0.579-1.053	c0.474,0,1.244,0.198,3.198,2.125C40.095,41.033,40.187,42,41.45,42h3.869c0.395,0,0.763-0.23,0.763-0.888	c0-0.869-1.132-2.444-2.869-4.287c-0.711-0.947-1.869-1.985-2.237-2.459C40.45,33.813,40.607,33.485,40.975,32.906z"/></svg>